<svg xmlns="http://www.w3.org/2000/svg" viewBox="0 0 1440 900" preserveAspectRatio="xMidYMid slice">
  <rect width="1440" height="900" fill="#0d0931"/>
  <!-- Outer glow layer -->
  <path d="M0 0 L380 0 Q480 0 480 120 Q480 320 360 420 Q200 540 280 700 Q330 800 280 900 L0 900 Z" fill="#2a2060" opacity="0.5"/>
  <!-- Middle wave layer -->
  <path d="M0 0 L340 0 Q440 0 440 140 Q440 340 320 440 Q160 560 240 720 Q290 820 240 900 L0 900 Z" fill="#4a5da8" opacity="0.6"/>
  <!-- Inner wave layer -->
  <path d="M0 0 L300 0 Q400 20 400 160 Q400 360 280 460 Q120 580 200 740 Q250 840 200 900 L0 900 Z" fill="#6b8cce" opacity="0.7"/>
  <!-- Core wave -->
  <path d="M0 0 L260 0 Q360 40 360 180 Q360 380 240 480 Q80 600 160 760 Q210 860 160 900 L0 900 Z" fill="#7ba3e0"/>
</svg>
